<svg width="250" height="59" viewBox="0 0 250 59" fill="none" xmlns="http://www.w3.org/2000/svg">
<path d="M172.342 22.3761H174.095C174.364 23.0515 174.499 24.087 174.499 24.9424H174.769C175.533 23.0515 177.286 21.9259 180.208 21.9259C185.153 21.9259 187.175 25.5727 187.175 31.1104C187.175 38.0438 184.164 42.0508 178.185 42.0508C176.477 42.0508 175.443 41.8707 174.769 41.6906V49.1643H172.297V22.3761H172.342ZM184.568 31.1554C184.568 27.2835 183.31 24.4922 179.624 24.4922C177.646 24.4922 176.073 25.3476 174.814 26.4731V39.0793C175.713 39.5296 176.927 39.7547 178.32 39.7547C182.186 39.7547 184.568 37.0984 184.568 31.1554Z" fill="white"/>
<path d="M191.626 22.3761H193.469C193.693 23.2315 193.873 23.9969 193.918 24.9423H194.143C194.637 23.1414 195.941 21.9258 198.189 21.9258C200.346 21.9258 201.425 22.6012 201.425 23.7267C201.425 24.267 201.245 24.8973 200.706 25.3925C200.076 24.9873 199.402 24.5821 197.874 24.5821C196.57 24.5821 194.952 25.2125 194.098 26.7432V41.6005H191.626V22.3761Z" fill="white"/>
<path d="M203.223 32.0558C203.223 25.6177 206.414 21.9258 211.134 21.9258C215.629 21.9258 217.697 25.1674 217.697 29.4445C217.697 30.1199 217.607 30.7502 217.562 31.3355H205.875C205.875 37.3234 207.943 39.5295 211.764 39.5295C213.966 39.5295 215.494 38.8542 216.663 38.0888C217.068 38.494 217.337 39.0793 217.337 39.5745C217.337 41.0602 214.506 42.0507 211.584 42.0507C205.875 42.0507 203.223 38.584 203.223 32.0558ZM214.955 29.1744C214.955 26.0229 213.472 24.267 210.954 24.267C208.887 24.267 206.729 25.7077 206.055 29.1744H214.955Z" fill="white"/>
<path d="M221.563 39.7096C221.563 39.0793 221.743 38.494 222.147 38.1788C223.046 38.8091 224.844 39.6646 226.867 39.6646C229.339 39.6646 230.868 38.629 230.868 36.7381C230.868 32.6861 221.922 33.4965 221.922 27.2835C221.922 24.1769 224.035 21.9258 228.62 21.9258C230.508 21.9258 233.16 22.5562 233.16 23.9969C233.16 24.5821 232.935 25.1674 232.486 25.6177C231.587 24.9873 230.283 24.312 228.305 24.312C225.743 24.312 224.485 25.4826 224.485 27.1484C224.485 31.1554 233.475 30.6151 233.475 36.3779C233.475 39.7996 231.272 42.0507 226.777 42.0507C224.619 42.0507 221.563 41.5555 221.563 39.7096Z" fill="white"/>
<path d="M237.071 39.7096C237.071 39.0793 237.251 38.494 237.655 38.1788C238.554 38.8091 240.352 39.6646 242.375 39.6646C244.848 39.6646 246.376 38.629 246.376 36.7381C246.376 32.6861 237.431 33.4965 237.431 27.2835C237.431 24.1769 239.543 21.9258 244.128 21.9258C246.016 21.9258 248.668 22.5562 248.668 23.9969C248.668 24.5821 248.444 25.1674 247.994 25.6177C247.095 24.9873 245.791 24.312 243.814 24.312C241.251 24.312 239.993 25.4826 239.993 27.1484C239.993 31.1554 248.983 30.6151 248.983 36.3779C248.983 39.7996 246.78 42.0507 242.285 42.0507C240.128 42.0507 237.071 41.5555 237.071 39.7096Z" fill="white"/>
<path d="M68.0556 16.4332H83.7435V20.8454H73.0901V26.6532H83.0692V30.9753H73.0901V37.0984H83.7435V41.6006H68.0556V16.4332Z" fill="white"/>
<path d="M87.7889 41.6006L90.0365 16.4332H96.9589L102.533 36.1529L107.972 16.4332H114.894L117.142 41.6006H111.883L110.669 22.061L105.275 41.6006H99.4312L93.9922 22.061L92.7335 41.6006H87.7889Z" fill="white"/>
<path d="M131.976 16.4332C136.246 16.4332 139.168 18.3241 139.168 22.4211C139.168 25.4376 137.684 27.1935 135.257 28.0489V28.184C138.628 28.6342 139.977 31.2005 139.977 33.8117C139.977 38.9893 136.561 41.6456 130.627 41.6456H122.401V16.4332H131.976ZM127.391 20.5302V26.6532H130.268C132.155 26.6532 133.684 25.3926 133.684 23.4566C133.684 21.6558 132.56 20.5302 130.672 20.5302H127.391ZM127.391 37.3235H130.807C133.054 37.3235 134.538 36.1529 134.538 33.7217C134.538 31.9208 133.324 30.6602 131.032 30.6602H127.436V37.3235H127.391Z" fill="white"/>
<path d="M166.408 28.5441C166.408 37.0082 161.958 42.0507 154.316 42.0507C146.72 42.0507 142.809 37.0983 142.809 29.4445C142.809 21.7007 146.72 15.9829 154.946 15.9829C162.722 15.9829 166.408 21.2955 166.408 28.5441ZM148.158 29.0843C148.158 34.1718 150.406 37.5935 154.586 37.5935C159.081 37.5935 161.104 33.8567 161.104 28.9493C161.104 24.1319 159.171 20.4401 154.766 20.4401C150.091 20.3951 148.158 24.4921 148.158 29.0843Z" fill="white"/>
<path d="M25.1725 29.0844V6.10352e-05L50.3 14.5422L25.1725 29.0844Z" fill="#007D38"/>
<path d="M0 14.5422L25.1725 0V29.0843L0 14.5422Z" fill="#96C177"/>
<path d="M0 43.6265V14.5422L25.1725 29.0844L0 43.6265Z" fill="#69A73D"/>
<path d="M25.1725 58.1685L0 43.6264L25.1725 29.0842V58.1685Z" fill="#0080C6"/>
<path d="M25.1725 58.1685V29.0842L50.3 43.6264L25.1725 58.1685Z" fill="#2696D3"/>
<path d="M25.1725 29.0844L50.3 14.5422V43.6265L25.1725 29.0844Z" fill="#00659F"/>
<path opacity="0.85" d="M11.3277 21.1155L25.1726 13.1016L38.9725 21.1155L25.1726 29.0394L11.3277 21.1155Z" fill="white"/>
<path opacity="0.6" d="M25.1725 29.0844L38.9724 21.1155V37.0983L25.1725 45.0673V29.0844Z" fill="white"/>
<path opacity="0.4" d="M11.3277 37.0983V21.1155L25.1726 29.0844V45.0673L11.3277 37.0983Z" fill="white"/>
</svg>
